<?xml version="1.0" encoding="utf-8"?>
<!-- Generator: Adobe Illustrator 20.0.0, SVG Export Plug-In . SVG Version: 6.00 Build 0)  -->
<svg version="1.1" id="Layer_1" xmlns="http://www.w3.org/2000/svg" xmlns:xlink="http://www.w3.org/1999/xlink" x="0px" y="0px"
	 viewBox="0 0 452 500" style="enable-background:new 0 0 452 500;" xml:space="preserve">
<style type="text/css">
	.st0{fill:#F15C61;}
</style>
<g>
	<g>
		<path class="st0" d="M109,490.6c57.8-26.5,99.7-77.7,129.3-132.6c8-14.9,15.2-30.1,22-45.6c6.7-15.3,14.8-31.1,16.5-47.9
			c1.5-14.6-4.1-30.3-16.8-38.4c-14-9-31.8-3.7-45.9,2.1c-13.5,5.6-27.1,14-33.7,27.7c-7.5,15.4-5,32.5,0.9,48
			c6.1,15.8,13.8,31.3,21.6,46.3c8,15.3,17.3,29.6,28.3,42.9c20.4,24.5,45.8,45.9,71.9,64.2c14.1,9.9,29.4,16.8,46.6,18.8
			c8.4,1,16.8,0.8,25.1,0.4c8.4-0.4,17.4-0.4,25.3-3.8c14.5-6.3,22.4-24.7,27.5-38.6c5.4-14.6,7.9-30.2,9.1-45.6
			c2.7-33.2-0.1-67.2-5-100c-5-33.7-13.5-66.8-25.3-98.8c-11.1-30.1-24.5-59.8-42.2-86.5c-32.3-48.9-86.1-91.9-148.2-84.3
			c-15.1,1.9-29.7,6.6-42.6,14.9c-13.3,8.5-24.6,19.7-34.9,31.7c-20.4,24-38.5,50.2-54.2,77.5c-31.1,54.2-53,114-64,175.6
			c-5.5,30.8-8.5,62.1-8.6,93.5c0,16.7,0.1,34.4,6.4,50.2c3.1,7.6,7.4,14,15,17.7c7.6,3.7,16.3,5.3,24.6,6.7
			c16.9,2.9,33.9,3.8,51,2.2c5.4-0.5,10-4.2,10-10c0-5-4.6-10.5-10-10c-15.5,1.4-31.2,1.1-46.6-1.6c-6.5-1.2-14.4-2-20.3-5.3
			c-5.3-2.9-6.6-10.7-7.8-16c-3.1-14-2.5-28.9-2.2-43.1c0.3-14.4,1.2-28.7,2.7-43c5.8-56.1,21.1-111.7,44.6-163
			c12-26.1,26-51.3,42-75.2c15.5-23.1,32.7-47.7,54.8-65.2c42.8-33.9,102.1-15.7,138.7,18.4c20.5,19.1,36.2,42.6,49.1,67.3
			c13.9,26.6,24.9,54.8,33.5,83.6c8.8,29.7,14.9,60.3,17.9,91.1c2.8,28.7,4.5,58.9-0.4,87.4c-2.3,13.5-6.3,26.7-13.1,38.7
			c-3.1,5.4-6.3,11.4-12.8,12.7c-6.9,1.4-14.5,1.2-21.5,1.4c-15.2,0.4-29.2-1.9-42.5-9.4c-12.6-7.1-24-16.4-35.1-25.5
			c-22.6-18.5-43.9-39-59.5-63.9c-8.4-13.5-15.3-27.8-22.1-42.1c-5.9-12.6-13.1-26.2-12.7-40.5c0.4-12.4,9.7-20.6,20-25.9
			c5.4-2.8,11.2-5,17.1-6.6c5.4-1.5,12.1-2.9,17.1,0.6c9.7,6.8,7.6,21,4.6,30.5c-4.5,14.3-11.1,28.1-17.4,41.6
			c-24,52.1-55.4,103.4-102.8,137.3c-11.1,8-22.9,14.8-35.4,20.5c-4.9,2.3-6.1,9.3-3.6,13.7C98.3,492.1,104.1,492.9,109,490.6
			L109,490.6z"/>
	</g>
</g>
</svg>
