<?xml version="1.0" encoding="utf-8"?>
<!-- Generator: Adobe Illustrator 20.0.0, SVG Export Plug-In . SVG Version: 6.00 Build 0)  -->
<svg version="1.1" id="Layer_1" xmlns="http://www.w3.org/2000/svg" xmlns:xlink="http://www.w3.org/1999/xlink" x="0px" y="0px"
	 viewBox="0 0 512 512" style="enable-background:new 0 0 512 512;" xml:space="preserve">
<style type="text/css">
	.st0{fill:#A0A0A0;}
	.st1{fill:#565556;}
</style>
<rect class="st0" width="512" height="512"/>
<path class="st1" d="M494,512c0,0,0-32.7-2.7-49.8c-2.2-13.5-20.9-31.4-100.5-60.6c-78.3-28.8-73.5-14.8-73.5-67.7
	c0-34.3,17.5-14.4,28.6-79.6c4.3-25.7,7.8-8.6,17.2-49.7c5-21.6-3.3-23.2-2.4-33.5s2-19.5,3.8-40.5c2.2-26-21.9-94.6-108.6-94.6
	s-110.8,68.5-108.5,94.7c1.9,20.9,2.9,30.2,3.8,40.5c1,10.3-7.3,11.9-2.4,33.5c9.4,41,12.9,23.9,17.2,49.7
	c11.2,65.2,28.6,45.2,28.6,79.6c0,53.1,4.8,39-73.5,67.7C41.8,430.8,23,448.8,20.9,462.3C18,479.3,18,512,18,512h238H494z"/>
</svg>
