<?xml version="1.0" encoding="utf-8"?>
<!-- Generator: Adobe Illustrator 20.0.0, SVG Export Plug-In . SVG Version: 6.00 Build 0)  -->
<svg version="1.1" id="Layer_1" xmlns="http://www.w3.org/2000/svg" xmlns:xlink="http://www.w3.org/1999/xlink" x="0px" y="0px"
	 viewBox="0 0 600 600" style="enable-background:new 0 0 600 600;" xml:space="preserve">
<style type="text/css">
	.st0{fill:#F78C1E;}
	.st1{fill:#FECD82;}
	.st2{fill:#81CBC4;}
	.st3{fill:#E0F2F0;}
	.st4{fill:#4CB6AC;}
	.st5{fill:#A0877E;}
	.st6{opacity:0.5;}
	.st7{fill:#FFFFFF;}
	.st8{font-family:'BebasNeue';}
	.st9{font-size:65px;}
	.st10{font-family:'BeyondTheMountains';}
</style>
<g id="Energy_Drink">
	<g>
		<g>
			<path class="st0" d="M262.4,84.8V99c0,4.1,4,7.9,10.5,10.7c7.2,3.2,17.5,5.1,29.1,5.1c11.5,0,21.8-2,29.1-5.1
				c6.5-2.8,10.5-6.6,10.5-10.7V84.8"/>
		</g>
		<g>
			<path class="st1" d="M262.4,82.1c0,4.1,4,7.9,10.5,10.7c7.2,3.2,17.5,5.1,29.1,5.1c11.5,0,21.8-2,29.1-5.1
				c6.5-2.8,10.5-6.6,10.5-10.7c0-4.1-4-7.9-10.5-10.7c-7.3-3.2-17.7-5.1-29.1-5.1s-21.8,2-29.1,5.1
				C266.3,74.2,262.4,77.9,262.4,82.1z"/>
		</g>
		<g>
			<path class="st2" d="M270.3,141.3l-6.6,6.4c-3.4,4.1-5.2,9.2-5.2,14.6v13.1c0,4.8,1.8,9.4,5.1,12.8l8,8.4
				c4.1,4.4,6.4,10.1,6.4,16.1c0,5.7-2.1,11.2-5.8,15.4l-7.7,8.8c-3.8,4.4-5.9,9.9-5.9,15.7v111.7c0.5,0.8,2.6,3,7.8,5.2
				c8.9,3.9,21.8,6.1,35.5,6.1c13.7,0,26.6-2.2,35.5-6.1c5.2-2.3,7.3-4.4,7.8-5.2V252.6c0-5.8-2.1-11.4-5.9-15.7l-7.7-8.8
				c-3.8-4.2-5.8-9.8-5.8-15.4c0-6,2.3-11.7,6.4-16.1l8-8.4c3.3-3.5,5.1-8,5.1-12.8v-13.1c0-5.3-1.8-10.5-5.2-14.6l-5.6-5.6"/>
		</g>
		<g>
			<path class="st3" d="M268.5,143c-1.1,1.4-1.8,2.9-1.8,4.4c0,3.7,3.5,7.1,9.3,9.6c6.4,2.8,15.6,4.6,25.9,4.6
				c10.2,0,19.5-1.8,25.9-4.6c5.7-2.5,9.3-5.9,9.3-9.6s-3.5-7.1-9.3-9.6c-6.4-2.8-15.6-4.6-25.9-4.6s-19.5,1.8-25.9,4.6
				C272.6,139.4,270,141.1,268.5,143"/>
		</g>
		<g>
			<path class="st1" d="M276.5,366.6c2.4-18.9,4.8-37.8,7.1-56.8c-6.5-0.5-12.9-1.2-19.3-2.2c5.8-21.3,11.7-42.9,17.5-64.7
				c18.2,1.5,36.5,0.8,54.7-2.1c-5.7,11.3-11.5,22.4-17.3,33.2c5.8-0.5,11.7-1.1,17.5-2.1C316.7,306.1,296.5,337.7,276.5,366.6z"/>
		</g>
		<g>
			<path class="st0" d="M289.1,250.3c10.5,0.7,21,0.2,31.4-1.4c-5.7,11.3-11.5,22.2-17.3,32.8c5.8-0.2,11.5-0.7,17.3-1.6
				c-9.8,16.7-19.6,32.4-29.5,47c1.6-9.5,3.1-19.1,4.7-28.7c-6.4-0.1-12.8-0.7-19.1-1.7C280.7,281.4,284.9,265.9,289.1,250.3z"/>
		</g>
		<g>
			<g>
				<circle class="st4" cx="275.8" cy="173.2" r="3.4"/>
			</g>
			<g>
				<circle class="st4" cx="309.7" cy="186.9" r="3.4"/>
			</g>
			<g>
				<circle class="st4" cx="319" cy="197.6" r="3.4"/>
			</g>
			<g>
				<circle class="st4" cx="271.5" cy="324.2" r="3.4"/>
			</g>
			<g>
				<circle class="st4" cx="331.8" cy="353.4" r="3.4"/>
			</g>
			<g>
				<circle class="st4" cx="331.8" cy="169.8" r="3.4"/>
			</g>
			<g>
				<circle class="st4" cx="285.1" cy="147.5" r="3.4"/>
			</g>
			<g>
				<circle class="st4" cx="296.8" cy="194.2" r="5.3"/>
			</g>
		</g>
	</g>
	<g>
		<g>
			<g>
				<path class="st5" d="M275.8,177.9c-2.6,0-4.7-2.1-4.7-4.7c0-2.6,2.1-4.7,4.7-4.7c2.6,0,4.7,2.1,4.7,4.7
					C280.5,175.8,278.4,177.9,275.8,177.9z M275.8,171.2c-1.1,0-2,0.9-2,2s0.9,2,2,2c1.1,0,2-0.9,2-2S277,171.2,275.8,171.2z"/>
			</g>
			<g>
				<path class="st5" d="M309.7,191.6c-2.6,0-4.7-2.1-4.7-4.7c0-2.6,2.1-4.7,4.7-4.7c2.6,0,4.7,2.1,4.7,4.7
					C314.4,189.5,312.4,191.6,309.7,191.6z M309.7,184.9c-1.1,0-2,0.9-2,2s0.9,2,2,2c1.1,0,2-0.9,2-2S310.9,184.9,309.7,184.9z"/>
			</g>
			<g>
				<path class="st5" d="M319,202.3c-2.6,0-4.7-2.1-4.7-4.7s2.1-4.7,4.7-4.7c2.6,0,4.7,2.1,4.7,4.7S321.7,202.3,319,202.3z
					 M319,195.5c-1.1,0-2,0.9-2,2s0.9,2,2,2s2-0.9,2-2S320.2,195.5,319,195.5z"/>
			</g>
			<g>
				<path class="st5" d="M271.5,329c-2.6,0-4.7-2.1-4.7-4.7s2.1-4.7,4.7-4.7c2.6,0,4.7,2.1,4.7,4.7S274.1,329,271.5,329z
					 M271.5,322.2c-1.1,0-2,0.9-2,2s0.9,2,2,2c1.1,0,2-0.9,2-2S272.6,322.2,271.5,322.2z"/>
			</g>
			<g>
				<path class="st5" d="M331.8,358.2c-2.6,0-4.7-2.1-4.7-4.7s2.1-4.7,4.7-4.7c2.6,0,4.7,2.1,4.7,4.7S334.4,358.2,331.8,358.2z
					 M331.8,351.4c-1.1,0-2,0.9-2,2s0.9,2,2,2s2-0.9,2-2S332.9,351.4,331.8,351.4z"/>
			</g>
			<g>
				<path class="st5" d="M331.8,174.6c-2.6,0-4.7-2.1-4.7-4.7c0-2.6,2.1-4.7,4.7-4.7c2.6,0,4.7,2.1,4.7,4.7
					C336.5,172.5,334.4,174.6,331.8,174.6z M331.8,167.8c-1.1,0-2,0.9-2,2s0.9,2,2,2s2-0.9,2-2S332.9,167.8,331.8,167.8z"/>
			</g>
			<g>
				<path class="st5" d="M285.1,152.2c-2.6,0-4.7-2.1-4.7-4.7c0-2.6,2.1-4.7,4.7-4.7s4.7,2.1,4.7,4.7
					C289.8,150.1,287.7,152.2,285.1,152.2z M285.1,145.4c-1.1,0-2,0.9-2,2s0.9,2,2,2c1.1,0,2-0.9,2-2S286.2,145.4,285.1,145.4z"/>
			</g>
			<g>
				<path class="st5" d="M296.8,200.9c-3.7,0-6.7-3-6.7-6.7s3-6.7,6.7-6.7c3.7,0,6.7,3,6.7,6.7S300.6,200.9,296.8,200.9z
					 M296.8,190.2c-2.2,0-4,1.8-4,4c0,2.2,1.8,4,4,4c2.2,0,4-1.8,4-4C300.8,192,299.1,190.2,296.8,190.2z"/>
			</g>
		</g>
		<g>
			<path class="st5" d="M301.8,395.2c-16,0-30.9-2.6-42-7.5c-11.3-4.9-17.5-11.9-17.5-19.7V252.6c0-9.7,3.5-19.1,9.9-26.4l7.7-8.8
				c1.1-1.3,1.8-3,1.8-4.8c0-1.9-0.7-3.6-2-5l-8-8.4c-6.1-6.5-9.5-15-9.5-23.9v-13.1c0-9,3.2-17.8,8.8-24.8l4.9-5.9
				c3.2-4,5.7-11.9,5.7-18.6v-1c-3.9-3.7-4.8-7.4-4.8-10V84.8c0-8.4,8.6-13.5,13.6-15.7c8.2-3.6,19.3-5.6,31.2-5.6
				c11.9,0,23,2,31.2,5.6c5.1,2.2,13.6,7.2,13.6,15.7v17c0,2.6-0.9,6.4-4.8,10v1c0,6.7,2.4,14.6,5.7,18.6l4.9,5.9
				c5.7,6.9,8.8,15.8,8.8,24.8v13.1c0,8.9-3.4,17.4-9.5,23.9l0,0l-8,8.4c-1.3,1.3-2,3.1-2,5c0,1.8,0.6,3.4,1.8,4.8l7.7,8.8
				c6.4,7.3,9.9,16.7,9.9,26.4v115.5c0,7.8-6.2,14.8-17.5,19.7C332.8,392.6,317.9,395.2,301.8,395.2z M301.8,74.3
				c-10.3,0-20.1,1.7-26.9,4.7c-5.3,2.3-7.2,4.7-7.2,5.8v17c0,0.6,0.7,1.8,2.6,3.2l2.2,1.6v6.3c0,7.8-2.5,18.6-8.1,25.4l-4.9,5.9
				c-4.1,5.1-6.4,11.5-6.4,17.9v13.1c0,6.1,2.4,12,6.5,16.5l8,8.4c3.2,3.4,4.9,7.8,4.9,12.4c0,4.4-1.6,8.6-4.4,11.9l-7.7,8.8
				c-4.7,5.3-7.3,12.2-7.3,19.3v115.5c0,3,4.2,6.8,11.1,9.8c9.6,4.2,23.3,6.6,37.7,6.6s28.1-2.4,37.7-6.6c6.8-3,11.1-6.7,11.1-9.8
				V252.6c0-7.1-2.6-14-7.3-19.3l-7.7-8.8c-2.9-3.3-4.4-7.6-4.4-11.9c0-4.7,1.8-9,4.9-12.4l8-8.4l0,0c4.2-4.5,6.5-10.4,6.5-16.5
				v-13.1c0-6.5-2.3-12.9-6.4-17.9l-4.9-5.9c-5.6-6.9-8.1-17.7-8.1-25.4v-6.3l2.2-1.6c1.9-1.4,2.6-2.6,2.6-3.2V84.8
				c0-1.1-1.9-3.5-7.2-5.8C321.9,76,312.2,74.3,301.8,74.3z"/>
		</g>
		<g>
			<path class="st5" d="M301.8,100.7c-11.5,0-22.2-1.9-30.1-5.3c-7.8-3.4-12.1-8.1-12.1-13.2s4.2-9.8,12.1-13.2
				c7.9-3.5,18.6-5.4,30.1-5.4c11.5,0,22.2,1.9,30.1,5.3c7.8,3.4,12.1,8.1,12.1,13.2s-4.2,9.8-12.1,13.2
				C324.1,98.8,313.4,100.7,301.8,100.7z M301.8,68.9c-10.7,0-20.8,1.8-28,4.9c-5.6,2.4-8.8,5.5-8.8,8.3s3.2,5.8,8.8,8.3
				c7.1,3.1,17.3,4.9,28,4.9c10.7,0,20.8-1.8,28-4.9c5.6-2.4,8.8-5.5,8.8-8.3s-3.2-5.8-8.8-8.3C322.7,70.7,312.5,68.9,301.8,68.9z"
				/>
		</g>
		<g>
			<path class="st5" d="M301.8,117.6c-11.5,0-22.2-1.9-30.1-5.3c-7.8-3.4-12.1-8.1-12.1-13.2V84.8h5.4V99c0,2.8,3.2,5.8,8.8,8.3
				c7.1,3.1,17.3,4.9,28,4.9c10.7,0,20.8-1.8,28-4.9c5.6-2.4,8.8-5.5,8.8-8.3V84.8h5.4V99c0,5.1-4.2,9.8-12.1,13.2
				C324.1,115.7,313.4,117.6,301.8,117.6z"/>
		</g>
		<g>
			<path class="st5" d="M301.8,378.4c-14,0-27.4-2.3-36.6-6.3c-6.5-2.8-8.6-5.5-9-6.3l-0.4-0.7V252.6c0-6.5,2.4-12.7,6.6-17.5
				l7.7-8.8c3.3-3.8,5.1-8.6,5.1-13.7c0-5.3-2-10.4-5.7-14.2l-8-8.4c-3.8-4-5.8-9.2-5.8-14.7v-13.1c0-5.9,2.1-11.7,5.8-16.2l0.2-0.2
				l6.6-6.4l3.8,3.8l-6.5,6.3c-2.9,3.6-4.5,8.1-4.5,12.7v13.1c0,4.1,1.6,8,4.4,11l8,8.4c4.6,4.9,7.1,11.3,7.1,17.9
				c0,6.3-2.3,12.5-6.5,17.3l-7.7,8.8c-3.4,3.8-5.3,8.8-5.3,14v110.7c0.7,0.7,2.5,2.1,6.2,3.7c8.6,3.8,21.1,5.9,34.5,5.9
				c13.3,0,25.8-2.2,34.5-5.9c3.7-1.6,5.5-3,6.2-3.7V252.6c0-5.1-1.9-10.1-5.3-14l-7.7-8.8c-4.2-4.8-6.5-10.9-6.5-17.3
				c0-6.7,2.5-13.1,7.1-17.9l8-8.4c2.8-3,4.4-6.9,4.4-11v-13.1c0-4.7-1.6-9.1-4.5-12.7l-5.5-5.5l3.8-3.8l5.8,5.8
				c3.8,4.6,5.8,10.3,5.8,16.2v13.1c0,5.5-2.1,10.7-5.8,14.7l-8,8.4c-3.6,3.8-5.7,8.9-5.7,14.2c0,5.1,1.8,9.9,5.1,13.7l7.7,8.8
				c4.2,4.9,6.6,11.1,6.6,17.5v112.5l-0.4,0.7c-0.5,0.7-2.5,3.4-9,6.3C329.2,376.1,315.9,378.4,301.8,378.4z"/>
		</g>
		<g>
			<path class="st5" d="M301.8,164.3c-10.3,0-19.9-1.7-27-4.8c-7-3.1-10.9-7.3-10.9-12.1c0-2.2,0.8-4.2,2.4-6.1l0,0
				c1.8-2.2,4.7-4.2,8.5-5.9c7.1-3.1,16.7-4.8,27-4.8s19.9,1.7,27,4.8c7,3.1,10.9,7.3,10.9,12.1s-3.8,9-10.9,12.1
				C321.7,162.6,312.2,164.3,301.8,164.3z M270.6,144.8c-0.7,0.9-1.1,1.9-1.1,2.8c0,2.4,2.9,5,7.7,7.1c6.3,2.8,15.4,4.3,24.8,4.3
				s18.5-1.6,24.8-4.3c4.8-2.1,7.7-4.7,7.7-7.1s-2.9-5-7.7-7.1c-6.3-2.8-15.4-4.3-24.8-4.3s-18.5,1.6-24.8,4.3
				C274.1,141.7,271.8,143.2,270.6,144.8L270.6,144.8z"/>
		</g>
		<g>
			<path class="st5" d="M286.3,338.2l2-12.2c1.4-8.5,2.8-17.1,4.2-25.6c-5.5-0.2-11-0.8-16.5-1.6l-3-0.5l0.8-2.9
				c4.4-16.3,8.6-31.6,12.5-46.5l0.6-2.2l2.2,0.1c10.2,0.7,20.6,0.2,30.7-1.4l5.2-0.8l-2.4,4.7c-4.9,9.6-9.9,19.2-15,28.7
				c4.1-0.3,8.2-0.7,12.2-1.3l5.6-0.9l-2.9,4.9c-9.4,16-19.3,32-29.5,47.2L286.3,338.2z M279.9,293.8c5.3,0.7,10.5,1.1,15.8,1.2
				l3.1,0.1l-0.5,3.1c-0.9,5.4-1.8,10.8-2.6,16.2c6.7-10.3,13.3-20.9,19.6-31.6c-4,0.5-8,0.8-12,0.9l-4.7,0.1l2.2-4.1
				c5.1-9.3,10-18.7,14.9-28.2c-8.2,1-16.4,1.3-24.5,0.9C287.5,265.8,283.9,279.3,279.9,293.8z"/>
		</g>
		<g>
			<path class="st5" d="M272.4,375.1l1.3-10.9c2.2-18,4.5-36,6.8-54c-5.6-0.5-11.2-1.1-16.7-2l-3-0.5l0.8-2.9
				c6.1-22.6,11.9-43.8,17.5-64.7l0.6-2.2l2.2,0.2c18,1.5,36.2,0.7,54-2l5.2-0.8l-2.4,4.7c-4.9,9.6-9.9,19.4-15,28.9
				c4.1-0.4,8.2-0.9,12.3-1.6l5.6-0.9l-2.9,4.9c-18.9,32.5-39.2,64.4-60.3,94.8L272.4,375.1z M267.7,303.3
				c5.3,0.7,10.7,1.3,16.1,1.8l2.8,0.2l-0.3,2.8c-1.9,15.3-3.8,30.5-5.7,45.8c17.7-26,34.8-53,51-80.4c-4,0.5-8,0.9-12.1,1.3
				l-4.9,0.4l2.3-4.4c5-9.4,10-19,14.8-28.6c-15.8,2.2-32,2.6-47.9,1.5C278.6,263,273.3,282.6,267.7,303.3z"/>
		</g>
		<g class="st6">
			<path class="st7" d="M329,192.3c-16.7,11.7-8.6,15.1-3.8,14.6c4.9-0.5,17.4-11.6,20.2-18.1c2.8-6.5,5.3-32.4,5.3-32.4
				S345.6,180.7,329,192.3z"/>
		</g>
		<g class="st6">
			<path class="st7" d="M272.4,128c-1.1,6.3-11.7,15.3-12.6,29.3c-0.9,14-0.8,20.7,1.8,22.9c2.6,2.2,11.8,5,17.5,4.7
				c-3.4-8.4,0-43.2,10.2-53.6C279.4,130.9,275.8,129.6,272.4,128z"/>
		</g>
		<g class="st6">
			<path class="st7" d="M266,230.1c0,0,3.6,2.1,14.9,2.2c-0.3,7.8-6,8-8,45.4c-0.6,10.7,10.8,30.6,3.7,62.4
				c-3.4,15.1,2.6,33.5,2.6,33.5s-19-2-21.5-9.1c0-14,2.4-33.9,1.6-43.5s-4.8-31.7-4.8-43.4C254.5,240.6,266,230.1,266,230.1z"/>
		</g>
		<g>
			<path class="st7" d="M265.9,232.2c0,0-6.7,13.2-6.6,18.7c3.1,0.9,10.7,2.1,10.7,2.1l6.5-18.9L265.9,232.2z"/>
		</g>
		<g>
			<path class="st7" d="M274.3,131.3c0,0-5.9,6.6-6.4,10c2.9,0.7,8.6,1.1,8.6,1.1l7.1-9.6L274.3,131.3z"/>
		</g>
	</g>
</g>
<text transform="matrix(1 0 0 1 155 472)"><tspan x="0" y="0" class="st5 st8 st9">Steroid</tspan><tspan x="162.4" y="0" class="st5 st10 st9">esign</tspan></text>
</svg>
